<?xml version="1.0" standalone="no"?>
<!DOCTYPE svg PUBLIC "-//W3C//DTD SVG 20010904//EN"
 "http://www.w3.org/TR/2001/REC-SVG-20010904/DTD/svg10.dtd">
<svg version="1.0" xmlns="http://www.w3.org/2000/svg"
 width="256.000000pt" height="256.000000pt" viewBox="0 0 256.000000 256.000000"
 preserveAspectRatio="xMidYMid meet">

<g transform="translate(0.000000,256.000000) scale(0.100000,-0.100000)"
fill="#000000" stroke="none">
<path d="M1150 2554 c-189 -27 -313 -65 -454 -137 -345 -176 -588 -497 -672
-889 -25 -116 -25 -380 0 -496 56 -260 168 -468 354 -655 178 -180 397 -298
654 -353 117 -26 380 -25 498 0 513 111 898 496 1005 1006 26 122 30 297 11
430 -43 288 -172 539 -383 741 -114 110 -193 164 -227 155 -37 -9 -76 12 -76
41 0 20 -11 29 -62 52 -155 71 -357 112 -529 110 -52 -1 -105 -3 -119 -5z
m276 -975 c202 -96 252 -359 101 -526 -74 -81 -197 -123 -304 -104 -61 12 -83
4 -83 -29 0 -36 28 -45 139 -45 98 0 111 2 173 32 117 55 213 177 233 294 l7
39 394 0 394 0 0 -44 c0 -68 -27 -203 -58 -296 -143 -420 -500 -729 -932 -805
-111 -20 -315 -19 -421 1 -505 96 -877 468 -973 973 -9 46 -16 103 -16 127 l0
44 394 0 394 0 7 -37 c15 -84 94 -216 146 -244 27 -14 59 -2 59 23 0 11 -18
40 -39 63 -182 197 -89 505 169 562 74 16 143 8 216 -28z"/>
</g>
</svg>
